<svg width="351" height="123" viewBox="0 0 351 123" fill="none" xmlns="http://www.w3.org/2000/svg">
<g clip-path="url(#clip0_2090_2069)">
<path d="M93.0514 58.7036C100.824 50.9977 100.824 38.4559 93.0514 30.75L62.0343 0L50.7541 11.183L81.7712 41.933C83.3248 43.4731 83.3248 45.9831 81.7712 47.5232C80.2177 49.0633 77.686 49.0633 76.1325 47.5232L59.2136 30.75C51.4407 23.0441 38.79 23.0441 31.0171 30.75L0 61.5L11.2802 72.683L42.2973 41.933C43.8508 40.3929 46.3826 40.3929 47.9361 41.933L64.855 58.7062C72.6278 66.4121 85.2786 66.4121 93.0514 58.7062V58.7036Z" fill="black"/>
<path d="M47.9361 75.4768L64.855 92.25C72.6278 99.9559 85.2786 99.9559 93.0514 92.25L124.069 61.5L112.788 50.317L81.7712 81.067C80.2177 82.6071 77.686 82.6071 76.1325 81.067L59.2136 64.2938C51.4407 56.5879 38.79 56.5879 31.0171 64.2938C23.2443 71.9997 23.2443 84.5415 31.0171 92.2474L62.0343 122.997L73.3144 111.814L42.2973 81.0644C40.7438 79.5243 40.7438 77.0143 42.2973 75.4742C43.8508 73.9341 46.3825 73.9341 47.9361 75.4742V75.4768Z" fill="black"/>
<path d="M181.188 28.1796H145.81V42.2089H181.188C185.09 42.2089 188.263 45.3549 188.263 49.2236C188.263 53.0923 185.09 56.2383 181.188 56.2383H163.582C153.784 56.2383 145.81 64.1413 145.81 73.8578V94.8203H159.961V73.8578C159.961 71.8787 161.586 70.2676 163.582 70.2676H181.188C192.892 70.2676 202.415 60.8271 202.415 49.2236C202.415 37.6201 192.892 28.1796 181.188 28.1796Z" fill="black"/>
<path d="M211.259 45.8726V77.1272C211.259 86.8831 219.265 94.8203 229.106 94.8203H259.02V80.791H229.106C227.07 80.791 225.41 79.1483 225.41 77.1272V67.9075H257.249V55.2422H225.41V45.8726C225.41 43.8542 227.067 42.2089 229.106 42.2089H259.02V28.1796H229.106C219.265 28.1796 211.259 36.1167 211.259 45.8726Z" fill="black"/>
<path d="M283.783 77.4716V28.1796H269.632V77.4716C269.632 87.0356 277.482 94.8177 287.129 94.8177H306.778V80.7884H287.129C285.284 80.7884 283.783 79.3008 283.783 77.4716Z" fill="black"/>
<path d="M331.353 80.791C329.508 80.791 328.008 79.3034 328.008 77.4742V28.1796H313.856V77.4716C313.856 87.0356 321.706 94.8177 331.353 94.8177H351.003V80.7884H331.353V80.791Z" fill="black"/>
</g>
<defs>
<clipPath id="clip0_2090_2069">
<rect width="351" height="123" fill="white"/>
</clipPath>
</defs>
</svg>
