<svg width="1078" height="368" viewBox="0 0 1078 368" fill="none" xmlns="http://www.w3.org/2000/svg">
<path d="M277 55.7881L276.989 0L239.492 41.2027C239.049 41.6896 221.336 61.144 198.791 85.9327C197.367 79.5921 195.317 73.3382 192.642 67.2573C181.8 42.5876 162.027 23.6309 136.968 13.8821C111.909 4.13325 84.5625 4.74999 59.9671 15.6349C35.3717 26.5091 16.4721 46.3422 6.75263 71.4771C0.97056 86.4196 0.139926 100.951 0.0967766 113.199C-0.0326728 145.951 -0.000310437 310.556 -0.000310437 312.212L0.010477 368L37.5076 326.797C37.9499 326.31 55.6629 306.856 78.2087 282.067C79.6326 288.408 81.6822 294.662 84.3575 300.743C95.1989 325.412 114.983 344.369 140.042 354.118C151.855 358.716 164.163 361.01 176.471 360.999C190.269 360.999 204.044 358.11 217.043 352.365C241.638 341.491 260.538 321.658 270.258 296.523C276.04 281.58 276.859 267.038 276.913 254.79C277.032 222.049 277 57.4435 277 55.7881ZM43.2466 113.361C43.2789 104.662 43.7536 95.4651 46.979 87.1229C52.5345 72.7647 63.322 61.4361 77.3672 55.2254C84.7998 51.9361 92.6638 50.2915 100.539 50.2915C107.561 50.2915 114.595 51.6007 121.348 54.23C135.663 59.8023 146.957 70.6223 153.149 84.7208C159.341 98.8085 159.697 114.476 154.141 128.834C150.884 137.252 144.8 144.62 139.276 150.712C126.126 165.222 77.885 218.229 43.1387 256.424C43.1495 204.996 43.171 133.681 43.2466 113.361ZM233.753 254.639C233.72 263.338 233.246 272.535 230.02 280.877C224.465 295.235 213.677 306.564 199.632 312.775C185.587 318.985 169.967 319.342 155.652 313.77C141.337 308.198 130.042 297.378 123.85 283.279C117.658 269.191 117.302 253.524 122.858 239.166C126.116 230.748 132.2 223.38 137.723 217.288C150.873 202.778 199.114 149.771 233.861 111.576C233.85 163.004 233.839 234.319 233.753 254.639Z" fill="white"/>
<path d="M602.759 139.636C602.759 177.477 571.964 208.263 534.122 208.263H471.312C460.275 208.263 451.299 217.248 451.299 228.276V296.619H415V228.276C415 197.225 440.262 171.963 471.312 171.963H534.122C551.951 171.963 566.459 157.464 566.459 139.636C566.459 121.798 551.951 107.299 534.122 107.299H415V71H534.122C571.964 71 602.759 101.786 602.759 139.636Z" fill="white"/>
<path d="M664.936 127.568V168.379H778.526V199.77H664.936V240.041C664.936 251.221 674.025 260.319 685.205 260.319H784.834V296.619H685.205C654.012 296.619 628.637 271.234 628.637 240.041V127.568C628.637 96.3756 654.012 71 685.205 71H784.834V107.299H685.205C674.025 107.299 664.936 116.389 664.936 127.568Z" fill="white"/>
<path d="M935.365 260.319V296.619H872.356C841.845 296.619 817.027 271.792 817.027 241.29V71H853.327V241.29C853.327 251.779 861.867 260.319 872.356 260.319H935.365Z" fill="white"/>
<path d="M1078 260.319V296.619H1014.99C984.482 296.619 959.664 271.792 959.664 241.29V71H995.964V241.29C995.964 251.779 1004.5 260.319 1014.99 260.319H1078Z" fill="white"/>
</svg>
